# Blender 5.1.0
# www.blender.org
mtllib roundedCube.mtl
o Cube
v -0.975000 -0.500000 0.975000
v -0.975000 0.500000 0.975000
v -0.975000 -0.500000 -0.975000
v -0.975000 0.500000 -0.975000
v 0.975000 -0.500000 0.975000
v 0.975000 0.500000 0.975000
v 0.975000 -0.500000 -0.975000
v 0.975000 0.500000 -0.975000
v 0.616667 -0.666667 -0.983333
v -0.616667 -0.666667 -0.983333
v -0.616667 0.666667 -0.983333
v 0.616667 0.666667 -0.983333
v 0.616667 -0.666667 0.983333
v -0.616667 -0.666667 0.983333
v -0.616667 0.666667 0.983333
v 0.616667 0.666667 0.983333
v -0.983333 -0.666667 -0.616667
v -0.983333 -0.666667 0.616667
v -0.983333 0.666667 0.616667
v -0.983333 0.666667 -0.616667
v 0.983333 -0.666667 0.616667
v 0.983333 -0.666667 -0.616667
v 0.983333 0.666667 -0.616667
v 0.983333 0.666667 0.616667
v 0.616667 1.000000 0.616667
v 0.616667 1.000000 -0.616667
v -0.616667 1.000000 -0.616667
v -0.616667 1.000000 0.616667
v -0.616667 -1.000000 0.616667
v -0.616667 -1.000000 -0.616667
v 0.616667 -1.000000 -0.616667
v 0.616667 -1.000000 0.616667
v -0.978647 -0.296650 0.978647
v -0.980479 -0.000000 0.980479
v -0.978647 0.296650 0.978647
v -0.978647 0.296650 -0.978647
v -0.980479 0.000000 -0.980479
v -0.978647 -0.296650 -0.978647
v 0.978647 0.296650 -0.978647
v 0.980479 -0.000000 -0.980479
v 0.978647 -0.296650 -0.978647
v 0.978647 0.296650 0.978647
v 0.980479 0.000000 0.980479
v 0.978647 -0.296650 0.978647
v -0.334896 0.666667 0.983333
v 0.000000 0.666667 0.983333
v 0.334896 0.666667 0.983333
v 0.334896 -0.666667 0.983333
v 0.000000 -0.666667 0.983333
v -0.334896 -0.666667 0.983333
v -0.616667 0.364583 0.992708
v -0.616667 0.000000 0.995833
v -0.616667 -0.364583 0.992708
v 0.616667 -0.364583 0.992708
v 0.616667 0.000000 0.995833
v 0.616667 0.364583 0.992708
v -0.334896 0.666667 -0.983333
v 0.000000 0.666667 -0.983333
v 0.334896 0.666667 -0.983333
v 0.616667 0.364583 -0.992708
v 0.616667 0.000000 -0.995833
v 0.616667 -0.364583 -0.992708
v 0.334896 -0.666667 -0.983333
v 0.000000 -0.666667 -0.983333
v -0.334896 -0.666667 -0.983333
v -0.616667 -0.364583 -0.992708
v -0.616667 0.000000 -0.995833
v -0.616667 0.364583 -0.992708
v -0.960010 -0.576501 -0.978825
v -0.911420 -0.638117 -0.981906
v -0.805073 -0.663098 -0.983155
v -0.960010 0.576501 -0.978825
v -0.911420 0.638117 -0.981906
v -0.805073 0.663098 -0.983155
v 0.805073 -0.663098 -0.983155
v 0.911420 -0.638117 -0.981906
v 0.960010 -0.576501 -0.978825
v 0.805073 0.663098 -0.983155
v 0.911420 0.638117 -0.981906
v 0.960010 0.576501 -0.978825
v 0.805073 -0.663098 0.983155
v 0.911420 -0.638117 0.981906
v 0.960010 -0.576501 0.978825
v 0.960010 0.576501 0.978825
v 0.911420 0.638117 0.981906
v 0.805073 0.663098 0.983155
v -0.805073 -0.663098 0.983155
v -0.911420 -0.638117 0.981906
v -0.960010 -0.576501 0.978825
v -0.805073 0.663098 0.983155
v -0.911420 0.638117 0.981906
v -0.960010 0.576501 0.978825
v 0.983333 0.666667 -0.334896
v 0.983333 0.666667 0.000000
v 0.983333 0.666667 0.334896
v 0.992708 0.364583 0.616667
v 0.995833 0.000000 0.616667
v 0.992708 -0.364583 0.616667
v 0.983333 -0.666667 0.334896
v 0.983333 -0.666667 0.000000
v 0.983333 -0.666667 -0.334896
v 0.992708 -0.364583 -0.616667
v 0.995833 0.000000 -0.616667
v 0.992708 0.364583 -0.616667
v -0.983333 0.666667 0.334896
v -0.983333 0.666667 0.000000
v -0.983333 0.666667 -0.334896
v -0.992708 0.364583 -0.616667
v -0.995833 0.000000 -0.616667
v -0.992708 -0.364583 -0.616667
v -0.983333 -0.666667 -0.334896
v -0.983333 -0.666667 0.000000
v -0.983333 -0.666667 0.334896
v -0.992708 -0.364583 0.616667
v -0.995833 0.000000 0.616667
v -0.992708 0.364583 0.616667
v 0.616667 1.000000 0.334896
v 0.616667 1.000000 -0.000000
v 0.616667 1.000000 -0.334896
v 0.334896 1.000000 -0.616667
v 0.000000 1.000000 -0.616667
v -0.334896 1.000000 -0.616667
v -0.616667 1.000000 -0.334896
v -0.616667 1.000000 -0.000000
v -0.616667 1.000000 0.334896
v -0.334896 1.000000 0.616667
v 0.000000 1.000000 0.616667
v 0.334896 1.000000 0.616667
v -0.616667 -1.000000 0.334896
v -0.616667 -1.000000 -0.000000
v -0.616667 -1.000000 -0.334896
v -0.334896 -1.000000 -0.616667
v -0.000000 -1.000000 -0.616667
v 0.334896 -1.000000 -0.616667
v 0.616667 -1.000000 -0.334896
v 0.616667 -1.000000 -0.000000
v 0.616667 -1.000000 0.334896
v 0.334896 -1.000000 0.616667
v -0.000000 -1.000000 0.616667
v -0.334896 -1.000000 0.616667
v -0.805208 -0.994792 0.616667
v -0.912500 -0.958333 0.616667
v -0.963542 -0.859375 0.616667
v -0.963542 -0.859375 -0.616667
v -0.912500 -0.958333 -0.616667
v -0.805208 -0.994792 -0.616667
v 0.963542 -0.859375 0.616667
v 0.912500 -0.958333 0.616667
v 0.805208 -0.994792 0.616667
v 0.805208 -0.994792 -0.616667
v 0.912500 -0.958333 -0.616667
v 0.963542 -0.859375 -0.616667
v 0.805208 0.994792 0.616667
v 0.912500 0.958333 0.616667
v 0.963542 0.859375 0.616667
v 0.963542 0.859375 -0.616667
v 0.912500 0.958333 -0.616667
v 0.805208 0.994792 -0.616667
v -0.963542 0.859375 0.616667
v -0.912500 0.958333 0.616667
v -0.805208 0.994792 0.616667
v -0.805208 0.994792 -0.616667
v -0.912500 0.958333 -0.616667
v -0.963542 0.859375 -0.616667
v -0.978825 -0.576501 0.960010
v -0.981906 -0.638117 0.911420
v -0.983155 -0.663098 0.805073
v -0.616667 -0.994792 0.805208
v -0.616667 -0.958333 0.912500
v -0.616667 -0.859375 0.963542
v -0.978825 0.576501 0.960010
v -0.981906 0.638117 0.911420
v -0.983155 0.663098 0.805073
v -0.983155 -0.663098 -0.805073
v -0.981906 -0.638117 -0.911420
v -0.978825 -0.576501 -0.960010
v -0.616667 -0.859375 -0.963542
v -0.616667 -0.958333 -0.912500
v -0.616667 -0.994792 -0.805208
v -0.983155 0.663098 -0.805073
v -0.981906 0.638117 -0.911420
v -0.978825 0.576501 -0.960010
v -0.616667 0.994792 -0.805208
v -0.616667 0.958333 -0.912500
v -0.616667 0.859375 -0.963542
v -0.616667 0.859375 0.963542
v -0.616667 0.958333 0.912500
v -0.616667 0.994792 0.805208
v 0.616667 -0.994792 -0.805208
v 0.616667 -0.958333 -0.912500
v 0.616667 -0.859375 -0.963542
v 0.978825 -0.576501 -0.960010
v 0.981906 -0.638117 -0.911420
v 0.983155 -0.663098 -0.805073
v 0.978825 0.576501 -0.960010
v 0.981906 0.638117 -0.911420
v 0.983155 0.663098 -0.805073
v 0.616667 -0.859375 0.963542
v 0.616667 -0.958333 0.912500
v 0.616667 -0.994792 0.805208
v 0.983155 -0.663098 0.805073
v 0.981906 -0.638117 0.911420
v 0.978825 -0.576501 0.960010
v 0.983155 0.663098 0.805073
v 0.981906 0.638117 0.911420
v 0.978825 0.576501 0.960010
v 0.616667 0.994792 0.805208
v 0.616667 0.958333 0.912500
v 0.616667 0.859375 0.963542
v 0.616667 0.859375 -0.963542
v 0.616667 0.958333 -0.912500
v 0.616667 0.994792 -0.805208
v -0.334896 0.364583 0.992708
v -0.334896 0.000000 0.995833
v -0.334896 -0.364583 0.992708
v 0.000000 0.364583 0.992708
v 0.000000 0.000000 0.995833
v 0.000000 -0.364583 0.992708
v 0.334896 0.364583 0.992708
v 0.334896 0.000000 0.995833
v 0.334896 -0.364583 0.992708
v 0.334896 0.364583 -0.992708
v 0.334896 0.000000 -0.995833
v 0.334896 -0.364583 -0.992708
v 0.000000 0.364583 -0.992708
v 0.000000 0.000000 -0.995833
v 0.000000 -0.364583 -0.992708
v -0.334896 0.364583 -0.992708
v -0.334896 0.000000 -0.995833
v -0.334896 -0.364583 -0.992708
v -0.961019 -0.318122 -0.986676
v -0.961902 -0.000000 -0.989333
v -0.961019 0.318122 -0.986676
v -0.911690 -0.348862 -0.990900
v -0.911960 -0.000000 -0.993904
v -0.911690 0.348862 -0.990900
v -0.805107 -0.362618 -0.992482
v -0.805141 0.000000 -0.995592
v -0.805107 0.362618 -0.992482
v 0.805107 -0.362618 -0.992482
v 0.805141 0.000000 -0.995592
v 0.805107 0.362618 -0.992482
v 0.911690 -0.348862 -0.990900
v 0.911960 0.000000 -0.993904
v 0.911690 0.348862 -0.990900
v 0.961019 -0.318122 -0.986676
v 0.961902 0.000000 -0.989333
v 0.961019 0.318122 -0.986676
v 0.961019 -0.318122 0.986676
v 0.961902 -0.000000 0.989333
v 0.961019 0.318122 0.986676
v 0.911690 -0.348862 0.990900
v 0.911960 -0.000000 0.993904
v 0.911690 0.348862 0.990900
v 0.805107 -0.362618 0.992482
v 0.805141 0.000000 0.995592
v 0.805107 0.362618 0.992482
v -0.805107 -0.362618 0.992482
v -0.805141 0.000000 0.995592
v -0.805107 0.362618 0.992482
v -0.911690 -0.348862 0.990900
v -0.911960 0.000000 0.993904
v -0.911690 0.348862 0.990900
v -0.961019 -0.318122 0.986676
v -0.961902 0.000000 0.989333
v -0.961019 0.318122 0.986676
v 0.992708 0.364583 0.334896
v 0.995833 -0.000000 0.334896
v 0.992708 -0.364583 0.334896
v 0.992708 0.364583 0.000000
v 0.995834 0.000000 0.000000
v 0.992708 -0.364583 -0.000000
v 0.992709 0.364583 -0.334896
v 0.995833 0.000000 -0.334896
v 0.992708 -0.364583 -0.334896
v -0.992708 0.364583 -0.334896
v -0.995833 0.000000 -0.334896
v -0.992708 -0.364583 -0.334896
v -0.992708 0.364583 0.000000
v -0.995833 0.000000 0.000000
v -0.992708 -0.364583 0.000000
v -0.992708 0.364583 0.334896
v -0.995833 0.000000 0.334896
v -0.992708 -0.364583 0.334896
v 0.334896 1.000000 -0.334896
v 0.000000 1.000000 -0.334896
v -0.334896 1.000000 -0.334896
v 0.334896 1.000000 -0.000000
v 0.000000 1.000000 -0.000000
v -0.334896 1.000000 0.000000
v 0.334896 1.000000 0.334896
v 0.000000 1.000000 0.334896
v -0.334896 1.000000 0.334896
v -0.334896 -1.000000 -0.334896
v -0.000000 -1.000000 -0.334896
v 0.334896 -1.000000 -0.334896
v -0.334896 -1.000000 -0.000000
v -0.000000 -1.000000 -0.000000
v 0.334896 -1.000000 0.000000
v -0.334896 -1.000000 0.334896
v -0.000000 -1.000000 0.334896
v 0.334896 -1.000000 0.334896
v -0.805208 -0.994792 0.334896
v -0.912500 -0.958333 0.334896
v -0.963542 -0.859375 0.334896
v -0.805208 -0.994792 -0.000000
v -0.912500 -0.958333 0.000000
v -0.963542 -0.859375 0.000000
v -0.805208 -0.994792 -0.334896
v -0.912500 -0.958333 -0.334896
v -0.963542 -0.859375 -0.334896
v 0.963542 -0.859375 0.334896
v 0.912500 -0.958333 0.334896
v 0.805208 -0.994792 0.334896
v 0.963542 -0.859375 0.000000
v 0.912500 -0.958333 0.000000
v 0.805208 -0.994792 -0.000000
v 0.963542 -0.859375 -0.334896
v 0.912500 -0.958333 -0.334896
v 0.805208 -0.994792 -0.334896
v 0.805208 0.994792 0.334896
v 0.912500 0.958333 0.334896
v 0.963542 0.859375 0.334896
v 0.805209 0.994792 0.000000
v 0.912500 0.958333 0.000000
v 0.963542 0.859375 -0.000000
v 0.805208 0.994792 -0.334896
v 0.912500 0.958333 -0.334896
v 0.963542 0.859375 -0.334896
v -0.963542 0.859375 0.334896
v -0.912500 0.958333 0.334896
v -0.805208 0.994792 0.334896
v -0.963542 0.859375 0.000000
v -0.912500 0.958333 0.000000
v -0.805208 0.994792 0.000000
v -0.963542 0.859375 -0.334896
v -0.912500 0.958333 -0.334896
v -0.805208 0.994792 -0.334896
v -0.963439 -0.854830 0.805111
v -0.912466 -0.953318 0.805175
v -0.805204 -0.989608 0.805204
v -0.962722 -0.823013 0.911724
v -0.912230 -0.918210 0.912230
v -0.805175 -0.953318 0.912466
v -0.961122 -0.738056 0.961122
v -0.911724 -0.823013 0.962722
v -0.805111 -0.854830 0.963439
v -0.986676 -0.318122 0.961019
v -0.989333 -0.000000 0.961902
v -0.986676 0.318122 0.961019
v -0.990900 -0.348862 0.911690
v -0.993904 -0.000000 0.911960
v -0.990900 0.348862 0.911690
v -0.992482 -0.362618 0.805107
v -0.995592 0.000000 0.805141
v -0.992482 0.362618 0.805107
v -0.961122 -0.738056 -0.961122
v -0.911724 -0.823013 -0.962722
v -0.805111 -0.854830 -0.963439
v -0.962722 -0.823013 -0.911724
v -0.912230 -0.918210 -0.912230
v -0.805175 -0.953318 -0.912466
v -0.963439 -0.854830 -0.805111
v -0.912466 -0.953318 -0.805175
v -0.805204 -0.989608 -0.805204
v -0.992482 -0.362618 -0.805107
v -0.995592 0.000000 -0.805141
v -0.992482 0.362618 -0.805107
v -0.990900 -0.348862 -0.911690
v -0.993904 0.000000 -0.911960
v -0.990900 0.348862 -0.911690
v -0.986676 -0.318122 -0.961019
v -0.989333 0.000000 -0.961902
v -0.986676 0.318122 -0.961019
v -0.805111 0.854830 -0.963439
v -0.911724 0.823013 -0.962722
v -0.961122 0.738056 -0.961122
v -0.805175 0.953318 -0.912466
v -0.912230 0.918210 -0.912230
v -0.962722 0.823013 -0.911724
v -0.805204 0.989608 -0.805204
v -0.912466 0.953318 -0.805175
v -0.963439 0.854830 -0.805111
v -0.805204 0.989608 0.805204
v -0.912466 0.953318 0.805175
v -0.963439 0.854830 0.805111
v -0.805175 0.953318 0.912466
v -0.912230 0.918210 0.912230
v -0.962722 0.823013 0.911724
v -0.805111 0.854830 0.963439
v -0.911724 0.823013 0.962722
v -0.961122 0.738056 0.961122
v 0.805111 -0.854830 -0.963439
v 0.911724 -0.823013 -0.962722
v 0.961122 -0.738056 -0.961122
v 0.805175 -0.953318 -0.912466
v 0.912230 -0.918210 -0.912230
v 0.962722 -0.823013 -0.911724
v 0.805204 -0.989608 -0.805204
v 0.912466 -0.953318 -0.805175
v 0.963439 -0.854830 -0.805111
v 0.986676 -0.318122 -0.961019
v 0.989333 -0.000000 -0.961902
v 0.986676 0.318122 -0.961019
v 0.990900 -0.348862 -0.911690
v 0.993904 0.000000 -0.911960
v 0.990900 0.348862 -0.911690
v 0.992482 -0.362618 -0.805107
v 0.995592 0.000000 -0.805141
v 0.992482 0.362618 -0.805107
v 0.805204 -0.989608 0.805204
v 0.912466 -0.953318 0.805175
v 0.963439 -0.854830 0.805111
v 0.805175 -0.953318 0.912466
v 0.912230 -0.918210 0.912230
v 0.962722 -0.823013 0.911724
v 0.805111 -0.854830 0.963439
v 0.911724 -0.823013 0.962722
v 0.961122 -0.738056 0.961122
v 0.992482 -0.362618 0.805107
v 0.995592 0.000000 0.805141
v 0.992482 0.362618 0.805107
v 0.990900 -0.348862 0.911690
v 0.993904 0.000000 0.911960
v 0.990900 0.348862 0.911690
v 0.986676 -0.318122 0.961019
v 0.989333 0.000000 0.961902
v 0.986676 0.318122 0.961019
v 0.963439 0.854830 0.805111
v 0.912466 0.953318 0.805175
v 0.805204 0.989608 0.805204
v 0.962722 0.823013 0.911724
v 0.912230 0.918210 0.912230
v 0.805175 0.953318 0.912466
v 0.961122 0.738056 0.961122
v 0.911724 0.823013 0.962722
v 0.805111 0.854830 0.963439
v 0.961122 0.738056 -0.961122
v 0.911724 0.823013 -0.962722
v 0.805111 0.854830 -0.963439
v 0.962722 0.823013 -0.911724
v 0.912230 0.918210 -0.912230
v 0.805175 0.953318 -0.912466
v 0.963439 0.854830 -0.805111
v 0.912466 0.953318 -0.805175
v 0.805204 0.989608 -0.805204
v -0.334896 0.859375 -0.963542
v -0.334896 0.958333 -0.912500
v -0.334896 0.994792 -0.805208
v 0.000000 0.859375 -0.963542
v 0.000000 0.958333 -0.912500
v -0.000000 0.994792 -0.805208
v 0.334896 0.859375 -0.963542
v 0.334896 0.958333 -0.912500
v 0.334896 0.994792 -0.805208
v -0.334896 0.994792 0.805208
v -0.334896 0.958333 0.912500
v -0.334896 0.859375 0.963542
v 0.000000 0.994792 0.805208
v 0.000000 0.958333 0.912500
v 0.000000 0.859375 0.963542
v 0.334896 0.994792 0.805208
v 0.334896 0.958333 0.912500
v 0.334896 0.859375 0.963542
v 0.334896 -0.859375 -0.963542
v 0.334896 -0.958333 -0.912500
v 0.334896 -0.994792 -0.805208
v 0.000000 -0.859375 -0.963542
v 0.000000 -0.958333 -0.912500
v 0.000000 -0.994792 -0.805208
v -0.334896 -0.859375 -0.963542
v -0.334896 -0.958333 -0.912500
v -0.334896 -0.994792 -0.805208
v 0.334896 -0.994792 0.805208
v 0.334896 -0.958333 0.912500
v 0.334896 -0.859375 0.963542
v -0.000000 -0.994792 0.805208
v 0.000000 -0.958333 0.912500
v 0.000000 -0.859375 0.963542
v -0.334896 -0.994792 0.805208
v -0.334896 -0.958333 0.912500
v -0.334896 -0.859375 0.963542
vn -0.7068 -0.0318 0.7067
vn -0.7067 0.0318 0.7068
vn -0.7067 -0.0318 -0.7068
vn -0.7068 0.0318 -0.7067
vn 0.7067 -0.0318 0.7067
vn 0.7068 0.0318 0.7067
vn 0.7068 -0.0318 -0.7067
vn 0.7067 0.0318 -0.7068
vn 0.0011 -0.0669 -0.9978
vn -0.0011 -0.0669 -0.9978
vn -0.0011 0.0669 -0.9978
vn 0.0011 0.0669 -0.9978
vn 0.0011 -0.0669 0.9978
vn -0.0011 -0.0669 0.9978
vn -0.0011 0.0669 0.9978
vn 0.0011 0.0669 0.9978
vn -0.9978 -0.0669 -0.0011
vn -0.9978 -0.0669 0.0011
vn -0.9978 0.0669 0.0011
vn -0.9978 0.0669 -0.0011
vn 0.9978 -0.0669 0.0011
vn 0.9978 -0.0669 -0.0011
vn 0.9978 0.0669 -0.0011
vn 0.9978 0.0669 0.0011
vn 0.0138 0.9998 0.0138
vn 0.0138 0.9998 -0.0138
vn -0.0138 0.9998 -0.0138
vn -0.0138 0.9998 0.0138
vn -0.0138 -0.9998 0.0138
vn -0.0138 -0.9998 -0.0138
vn 0.0138 -0.9998 -0.0138
vn 0.0138 -0.9998 0.0138
vn -0.7070 -0.0135 0.7070
vn -0.7071 -0.0000 0.7071
vn -0.7070 0.0135 0.7070
vn -0.7070 0.0135 -0.7070
vn -0.7071 -0.0000 -0.7071
vn -0.7070 -0.0135 -0.7070
vn 0.7070 0.0135 -0.7070
vn 0.7071 -0.0000 -0.7071
vn 0.7070 -0.0135 -0.7070
vn 0.7070 0.0135 0.7070
vn 0.7071 -0.0000 0.7071
vn 0.7070 -0.0135 0.7070
vn -0.0000 0.0666 0.9978
vn -0.0000 -0.0666 0.9978
vn -0.0007 0.0198 0.9998
vn -0.0006 -0.0000 1.0000
vn -0.0007 -0.0198 0.9998
vn 0.0007 -0.0198 0.9998
vn 0.0006 -0.0000 1.0000
vn 0.0007 0.0198 0.9998
vn -0.0000 0.0666 -0.9978
vn 0.0007 0.0198 -0.9998
vn 0.0006 -0.0000 -1.0000
vn 0.0007 -0.0198 -0.9998
vn -0.0000 -0.0666 -0.9978
vn -0.0007 -0.0198 -0.9998
vn -0.0006 -0.0000 -1.0000
vn -0.0007 0.0198 -0.9998
vn -0.4240 -0.0658 -0.9033
vn -0.1033 -0.0748 -0.9918
vn -0.0156 -0.0692 -0.9975
vn -0.4240 0.0658 -0.9033
vn -0.1033 0.0748 -0.9918
vn -0.0156 0.0692 -0.9975
vn 0.0156 -0.0692 -0.9975
vn 0.1033 -0.0748 -0.9918
vn 0.4240 -0.0658 -0.9033
vn 0.0156 0.0692 -0.9975
vn 0.1033 0.0748 -0.9918
vn 0.4240 0.0658 -0.9033
vn 0.0156 -0.0692 0.9975
vn 0.1033 -0.0748 0.9918
vn 0.4240 -0.0658 0.9033
vn 0.4240 0.0658 0.9033
vn 0.1033 0.0748 0.9918
vn 0.0156 0.0692 0.9975
vn -0.0156 -0.0692 0.9975
vn -0.1033 -0.0748 0.9918
vn -0.4240 -0.0658 0.9033
vn -0.0156 0.0692 0.9975
vn -0.1033 0.0748 0.9918
vn -0.4240 0.0658 0.9033
vn 0.9978 0.0666 -0.0000
vn 0.9998 0.0198 0.0007
vn 1.0000 -0.0000 0.0006
vn 0.9998 -0.0198 0.0007
vn 0.9978 -0.0666 -0.0000
vn 0.9998 -0.0198 -0.0007
vn 1.0000 -0.0000 -0.0006
vn 0.9998 0.0198 -0.0007
vn -0.9978 0.0666 -0.0000
vn -0.9998 0.0198 -0.0007
vn -1.0000 -0.0000 -0.0006
vn -0.9998 -0.0198 -0.0007
vn -0.9978 -0.0666 -0.0000
vn -0.9998 -0.0198 0.0007
vn -1.0000 -0.0000 0.0006
vn -0.9998 0.0198 0.0007
vn 0.0138 0.9999 -0.0000
vn -0.0000 0.9999 -0.0138
vn -0.0138 0.9999 -0.0000
vn -0.0000 0.9999 0.0138
vn -0.0138 -0.9999 -0.0000
vn -0.0000 -0.9999 -0.0138
vn 0.0138 -0.9999 -0.0000
vn -0.0000 -0.9999 0.0138
vn -0.1762 -0.9843 0.0134
vn -0.6508 -0.7592 0.0102
vn -0.9580 -0.2867 0.0038
vn -0.9580 -0.2867 -0.0038
vn -0.6508 -0.7592 -0.0102
vn -0.1762 -0.9843 -0.0134
vn 0.9580 -0.2867 0.0038
vn 0.6508 -0.7592 0.0102
vn 0.1762 -0.9843 0.0134
vn 0.1762 -0.9843 -0.0134
vn 0.6508 -0.7592 -0.0102
vn 0.9580 -0.2867 -0.0038
vn 0.1762 0.9843 0.0134
vn 0.6508 0.7592 0.0102
vn 0.9580 0.2867 0.0038
vn 0.9580 0.2867 -0.0038
vn 0.6508 0.7592 -0.0102
vn 0.1762 0.9843 -0.0134
vn -0.9580 0.2867 0.0038
vn -0.6508 0.7592 0.0102
vn -0.1762 0.9843 0.0134
vn -0.1762 0.9843 -0.0134
vn -0.6508 0.7592 -0.0102
vn -0.9580 0.2867 -0.0038
vn -0.9033 -0.0658 0.4240
vn -0.9918 -0.0748 0.1033
vn -0.9975 -0.0692 0.0156
vn -0.0134 -0.9843 0.1762
vn -0.0102 -0.7592 0.6508
vn -0.0038 -0.2867 0.9580
vn -0.9033 0.0658 0.4240
vn -0.9918 0.0748 0.1033
vn -0.9975 0.0692 0.0156
vn -0.9975 -0.0692 -0.0156
vn -0.9918 -0.0748 -0.1033
vn -0.9033 -0.0658 -0.4240
vn -0.0038 -0.2867 -0.9580
vn -0.0102 -0.7592 -0.6508
vn -0.0134 -0.9843 -0.1762
vn -0.9975 0.0692 -0.0156
vn -0.9918 0.0748 -0.1033
vn -0.9033 0.0658 -0.4240
vn -0.0134 0.9843 -0.1762
vn -0.0102 0.7592 -0.6508
vn -0.0038 0.2867 -0.9580
vn -0.0038 0.2867 0.9580
vn -0.0102 0.7592 0.6508
vn -0.0134 0.9843 0.1762
vn 0.0134 -0.9843 -0.1762
vn 0.0102 -0.7592 -0.6508
vn 0.0038 -0.2867 -0.9580
vn 0.9033 -0.0658 -0.4240
vn 0.9918 -0.0748 -0.1033
vn 0.9975 -0.0692 -0.0156
vn 0.9033 0.0658 -0.4240
vn 0.9918 0.0748 -0.1033
vn 0.9975 0.0692 -0.0156
vn 0.0038 -0.2867 0.9580
vn 0.0102 -0.7592 0.6508
vn 0.0134 -0.9843 0.1762
vn 0.9975 -0.0692 0.0156
vn 0.9918 -0.0748 0.1033
vn 0.9033 -0.0658 0.4240
vn 0.9975 0.0692 0.0156
vn 0.9918 0.0748 0.1033
vn 0.9033 0.0658 0.4240
vn 0.0134 0.9843 0.1762
vn 0.0102 0.7592 0.6508
vn 0.0038 0.2867 0.9580
vn 0.0038 0.2867 -0.9580
vn 0.0102 0.7592 -0.6508
vn 0.0134 0.9843 -0.1762
vn -0.0000 0.0198 0.9998
vn -0.0000 -0.0000 1.0000
vn -0.0000 -0.0198 0.9998
vn -0.0000 0.0198 -0.9998
vn -0.0000 -0.0000 -1.0000
vn -0.0000 -0.0198 -0.9998
vn -0.2584 -0.0194 -0.9658
vn -0.2629 -0.0000 -0.9648
vn -0.2584 0.0194 -0.9658
vn -0.0583 -0.0213 -0.9981
vn -0.0534 -0.0000 -0.9986
vn -0.0583 0.0213 -0.9981
vn -0.0095 -0.0202 -0.9998
vn -0.0086 -0.0000 -1.0000
vn -0.0095 0.0202 -0.9998
vn 0.0095 -0.0202 -0.9998
vn 0.0086 -0.0000 -1.0000
vn 0.0095 0.0202 -0.9998
vn 0.0583 -0.0213 -0.9981
vn 0.0534 -0.0000 -0.9986
vn 0.0583 0.0213 -0.9981
vn 0.2584 -0.0194 -0.9658
vn 0.2629 -0.0000 -0.9648
vn 0.2584 0.0194 -0.9658
vn 0.2584 -0.0194 0.9658
vn 0.2629 -0.0000 0.9648
vn 0.2584 0.0194 0.9658
vn 0.0583 -0.0213 0.9981
vn 0.0534 -0.0000 0.9986
vn 0.0583 0.0213 0.9981
vn 0.0095 -0.0202 0.9998
vn 0.0086 -0.0000 1.0000
vn 0.0095 0.0202 0.9998
vn -0.0095 -0.0202 0.9998
vn -0.0086 -0.0000 1.0000
vn -0.0095 0.0202 0.9998
vn -0.0583 -0.0213 0.9981
vn -0.0534 -0.0000 0.9986
vn -0.0583 0.0213 0.9981
vn -0.2584 -0.0194 0.9658
vn -0.2629 -0.0000 0.9648
vn -0.2584 0.0194 0.9658
vn 0.9998 0.0198 -0.0000
vn 1.0000 -0.0000 -0.0000
vn 0.9998 -0.0198 -0.0000
vn -0.9998 0.0198 -0.0000
vn -1.0000 -0.0000 -0.0000
vn -0.9998 -0.0198 -0.0000
vn -0.0000 1.0000 -0.0000
vn -0.0000 -1.0000 -0.0000
vn -0.1767 -0.9843 -0.0000
vn -0.6527 -0.7577 -0.0000
vn -0.9585 -0.2853 -0.0000
vn 0.9585 -0.2853 -0.0000
vn 0.6527 -0.7577 -0.0000
vn 0.1767 -0.9843 -0.0000
vn 0.1767 0.9843 -0.0000
vn 0.6527 0.7577 -0.0000
vn 0.9585 0.2853 -0.0000
vn -0.9585 0.2853 -0.0000
vn -0.6527 0.7577 -0.0000
vn -0.1767 0.9843 -0.0000
vn -0.9521 -0.3006 0.0553
vn -0.6302 -0.7649 0.1336
vn -0.1704 -0.9705 0.1704
vn -0.8908 -0.2988 0.3423
vn -0.5438 -0.6391 0.5438
vn -0.1336 -0.7649 0.6302
vn -0.6985 -0.1559 0.6985
vn -0.3423 -0.2988 0.8908
vn -0.0553 -0.3006 0.9521
vn -0.9658 -0.0194 0.2584
vn -0.9648 -0.0000 0.2629
vn -0.9658 0.0194 0.2584
vn -0.9981 -0.0213 0.0583
vn -0.9986 -0.0000 0.0534
vn -0.9981 0.0213 0.0583
vn -0.9998 -0.0202 0.0095
vn -1.0000 -0.0000 0.0086
vn -0.9998 0.0202 0.0095
vn -0.6985 -0.1559 -0.6985
vn -0.3423 -0.2988 -0.8908
vn -0.0553 -0.3006 -0.9521
vn -0.8908 -0.2988 -0.3423
vn -0.5438 -0.6391 -0.5438
vn -0.1336 -0.7649 -0.6302
vn -0.9521 -0.3006 -0.0553
vn -0.6302 -0.7649 -0.1336
vn -0.1704 -0.9705 -0.1704
vn -0.9998 -0.0202 -0.0095
vn -1.0000 -0.0000 -0.0086
vn -0.9998 0.0202 -0.0095
vn -0.9981 -0.0213 -0.0583
vn -0.9986 -0.0000 -0.0534
vn -0.9981 0.0213 -0.0583
vn -0.9658 -0.0194 -0.2584
vn -0.9648 -0.0000 -0.2629
vn -0.9658 0.0194 -0.2584
vn -0.0553 0.3006 -0.9521
vn -0.3423 0.2988 -0.8908
vn -0.6985 0.1559 -0.6985
vn -0.1336 0.7649 -0.6302
vn -0.5438 0.6391 -0.5438
vn -0.8908 0.2988 -0.3423
vn -0.1704 0.9705 -0.1704
vn -0.6302 0.7649 -0.1336
vn -0.9521 0.3006 -0.0553
vn -0.1704 0.9705 0.1704
vn -0.6302 0.7649 0.1336
vn -0.9521 0.3006 0.0553
vn -0.1336 0.7649 0.6302
vn -0.5438 0.6391 0.5438
vn -0.8908 0.2988 0.3423
vn -0.0553 0.3006 0.9521
vn -0.3423 0.2988 0.8908
vn -0.6985 0.1559 0.6985
vn 0.0553 -0.3006 -0.9521
vn 0.3423 -0.2988 -0.8908
vn 0.6985 -0.1559 -0.6985
vn 0.1336 -0.7649 -0.6302
vn 0.5438 -0.6391 -0.5438
vn 0.8908 -0.2988 -0.3423
vn 0.1704 -0.9705 -0.1704
vn 0.6302 -0.7649 -0.1336
vn 0.9521 -0.3006 -0.0553
vn 0.9658 -0.0194 -0.2584
vn 0.9648 -0.0000 -0.2629
vn 0.9658 0.0194 -0.2584
vn 0.9981 -0.0213 -0.0583
vn 0.9986 -0.0000 -0.0534
vn 0.9981 0.0213 -0.0583
vn 0.9998 -0.0202 -0.0095
vn 1.0000 -0.0000 -0.0086
vn 0.9998 0.0202 -0.0095
vn 0.1704 -0.9705 0.1704
vn 0.6302 -0.7649 0.1336
vn 0.9521 -0.3006 0.0553
vn 0.1336 -0.7649 0.6302
vn 0.5438 -0.6391 0.5438
vn 0.8908 -0.2988 0.3423
vn 0.0553 -0.3006 0.9521
vn 0.3423 -0.2988 0.8908
vn 0.6985 -0.1559 0.6985
vn 0.9998 -0.0202 0.0095
vn 1.0000 -0.0000 0.0086
vn 0.9998 0.0202 0.0095
vn 0.9981 -0.0213 0.0583
vn 0.9986 -0.0000 0.0534
vn 0.9981 0.0213 0.0583
vn 0.9658 -0.0194 0.2584
vn 0.9648 -0.0000 0.2629
vn 0.9658 0.0194 0.2584
vn 0.9521 0.3006 0.0553
vn 0.6302 0.7649 0.1336
vn 0.1704 0.9705 0.1704
vn 0.8908 0.2988 0.3423
vn 0.5438 0.6391 0.5438
vn 0.1336 0.7649 0.6302
vn 0.6985 0.1559 0.6985
vn 0.3423 0.2988 0.8908
vn 0.0553 0.3006 0.9521
vn 0.6985 0.1559 -0.6985
vn 0.3423 0.2988 -0.8908
vn 0.0553 0.3006 -0.9521
vn 0.8908 0.2988 -0.3423
vn 0.5438 0.6391 -0.5438
vn 0.1336 0.7649 -0.6302
vn 0.9521 0.3006 -0.0553
vn 0.6302 0.7649 -0.1336
vn 0.1704 0.9705 -0.1704
vn -0.0000 0.2853 -0.9585
vn -0.0000 0.7577 -0.6527
vn -0.0000 0.9843 -0.1767
vn -0.0000 0.9843 0.1767
vn -0.0000 0.7577 0.6527
vn -0.0000 0.2853 0.9585
vn -0.0000 -0.2853 -0.9585
vn -0.0000 -0.7577 -0.6527
vn -0.0000 -0.9843 -0.1767
vn -0.0000 -0.9843 0.1767
vn -0.0000 -0.7577 0.6527
vn -0.0000 -0.2853 0.9585
vt 0.562500 0.923826
vt 0.500000 0.920920
vt 0.500000 0.875000
vt 0.562500 0.875000
vt 0.437500 0.923826
vt 0.437500 0.875000
vt 0.500000 0.829080
vt 0.562500 0.826175
vt 0.437500 0.826175
vt 0.625000 0.987500
vt 0.562500 0.963151
vt 0.625000 0.931250
vt 0.500000 0.957986
vt 0.437500 0.963151
vt 0.375000 0.987500
vt 0.375000 0.931250
vt 0.375000 0.875000
vt 0.375000 0.818750
vt 0.375000 0.762500
vt 0.437500 0.786849
vt 0.500000 0.792014
vt 0.562500 0.786849
vt 0.625000 0.818750
vt 0.625000 0.762500
vt 0.625000 0.875000
vt 0.562500 0.423825
vt 0.500000 0.420920
vt 0.500000 0.375000
vt 0.562500 0.375000
vt 0.437500 0.423825
vt 0.437500 0.375000
vt 0.500000 0.329080
vt 0.562500 0.326175
vt 0.437500 0.326175
vt 0.625000 0.487500
vt 0.562500 0.463151
vt 0.625000 0.431250
vt 0.500000 0.457986
vt 0.437500 0.463151
vt 0.375000 0.487500
vt 0.375000 0.431250
vt 0.375000 0.375000
vt 0.375000 0.318750
vt 0.375000 0.262500
vt 0.437500 0.286849
vt 0.500000 0.292014
vt 0.562500 0.286849
vt 0.625000 0.318750
vt 0.625000 0.262500
vt 0.625000 0.375000
vt 0.437500 0.253379
vt 0.500000 0.253494
vt 0.500000 0.259201
vt 0.437500 0.258279
vt 0.562500 0.253379
vt 0.562500 0.258279
vt 0.500000 0.270074
vt 0.437500 0.267053
vt 0.562500 0.267053
vt 0.375000 0.250000
vt 0.437500 0.250000
vt 0.375000 0.253125
vt 0.500000 0.250000
vt 0.562500 0.250000
vt 0.625000 0.250000
vt 0.625000 0.253125
vt 0.625000 0.256250
vt 0.625000 0.259375
vt 0.562500 0.286849
vt 0.500000 0.292014
vt 0.437500 0.286849
vt 0.375000 0.259375
vt 0.375000 0.256250
vt 0.437500 0.482947
vt 0.500000 0.479926
vt 0.500000 0.490799
vt 0.437500 0.491721
vt 0.562500 0.482947
vt 0.562500 0.491721
vt 0.500000 0.496506
vt 0.437706 0.496621
vt 0.562294 0.496621
vt 0.437500 0.463151
vt 0.375000 0.490625
vt 0.500000 0.457986
vt 0.562500 0.463151
vt 0.625000 0.490625
vt 0.625000 0.493750
vt 0.625000 0.496875
vt 0.625000 0.500000
vt 0.560129 0.500000
vt 0.500000 0.500000
vt 0.439871 0.500000
vt 0.375000 0.496875
vt 0.375000 0.500000
vt 0.375000 0.493750
vt 0.437706 0.753379
vt 0.500000 0.753494
vt 0.500000 0.759201
vt 0.437500 0.758279
vt 0.562294 0.753379
vt 0.562500 0.758279
vt 0.500000 0.770074
vt 0.437500 0.767053
vt 0.562500 0.767053
vt 0.375000 0.750000
vt 0.439871 0.750000
vt 0.375000 0.753125
vt 0.500000 0.750000
vt 0.560129 0.750000
vt 0.625000 0.750000
vt 0.625000 0.753125
vt 0.625000 0.756250
vt 0.625000 0.759375
vt 0.562500 0.786849
vt 0.500000 0.792014
vt 0.437500 0.786849
vt 0.375000 0.759375
vt 0.375000 0.756250
vt 0.437500 0.982947
vt 0.500000 0.979926
vt 0.500000 0.990799
vt 0.437500 0.991721
vt 0.562500 0.982947
vt 0.562500 0.991721
vt 0.500000 0.996506
vt 0.437500 0.996621
vt 0.562500 0.996621
vt 0.437500 0.963151
vt 0.375000 0.990625
vt 0.500000 0.957986
vt 0.562500 0.963151
vt 0.625000 0.990625
vt 0.625000 0.993750
vt 0.625000 0.996875
vt 0.625000 1.000000
vt 0.562500 1.000000
vt 0.500000 1.000000
vt 0.437500 1.000000
vt 0.375000 0.996875
vt 0.375000 1.000000
vt 0.375000 0.993750
vt 0.546419 0.666862
vt 0.500000 0.666862
vt 0.500000 0.625000
vt 0.546419 0.625000
vt 0.453581 0.666862
vt 0.453581 0.625000
vt 0.500000 0.583138
vt 0.546419 0.583138
vt 0.453581 0.583138
vt 0.585417 0.702083
vt 0.546419 0.702083
vt 0.585417 0.666862
vt 0.500000 0.702083
vt 0.453581 0.702083
vt 0.414583 0.702083
vt 0.414583 0.666862
vt 0.414583 0.625000
vt 0.414583 0.583138
vt 0.414583 0.547917
vt 0.453581 0.547917
vt 0.500000 0.547917
vt 0.546419 0.547917
vt 0.585417 0.583138
vt 0.585417 0.547917
vt 0.585417 0.625000
vt 0.562500 0.173825
vt 0.500000 0.170920
vt 0.500000 0.125000
vt 0.562500 0.125000
vt 0.437500 0.173825
vt 0.437500 0.125000
vt 0.500000 0.079080
vt 0.562500 0.076175
vt 0.437500 0.076175
vt 0.625000 0.237500
vt 0.562500 0.213151
vt 0.625000 0.181250
vt 0.500000 0.207986
vt 0.437500 0.213151
vt 0.375000 0.237500
vt 0.375000 0.181250
vt 0.375000 0.125000
vt 0.375000 0.068750
vt 0.375000 0.012500
vt 0.437500 0.036849
vt 0.500000 0.042014
vt 0.562500 0.036849
vt 0.625000 0.068750
vt 0.625000 0.012500
vt 0.625000 0.125000
vt 0.708138 0.583138
vt 0.750000 0.583138
vt 0.750000 0.625000
vt 0.708138 0.625000
vt 0.791862 0.583138
vt 0.791862 0.625000
vt 0.750000 0.666862
vt 0.708138 0.666862
vt 0.791862 0.666862
vt 0.672917 0.547917
vt 0.708138 0.547917
vt 0.672917 0.583138
vt 0.750000 0.547917
vt 0.791862 0.547917
vt 0.827083 0.547917
vt 0.827083 0.583138
vt 0.827083 0.625000
vt 0.827083 0.666862
vt 0.827083 0.702083
vt 0.791862 0.702083
vt 0.750000 0.702083
vt 0.708138 0.702083
vt 0.672917 0.666862
vt 0.672917 0.702083
vt 0.672917 0.625000
vt 0.208138 0.583138
vt 0.250000 0.583138
vt 0.250000 0.625000
vt 0.208138 0.625000
vt 0.291862 0.583138
vt 0.291862 0.625000
vt 0.250000 0.666862
vt 0.208138 0.666862
vt 0.291862 0.666862
vt 0.172917 0.547917
vt 0.208138 0.547917
vt 0.172917 0.583138
vt 0.250000 0.547917
vt 0.291862 0.547917
vt 0.327083 0.547917
vt 0.327083 0.583138
vt 0.327083 0.625000
vt 0.327083 0.666862
vt 0.327083 0.702083
vt 0.291862 0.702083
vt 0.250000 0.702083
vt 0.208138 0.702083
vt 0.172917 0.666862
vt 0.172917 0.702083
vt 0.172917 0.625000
vt 0.149316 0.667116
vt 0.135677 0.668891
vt 0.135677 0.625000
vt 0.149316 0.625000
vt 0.128678 0.673572
vt 0.128678 0.625000
vt 0.135677 0.581109
vt 0.149316 0.582884
vt 0.128678 0.576428
vt 0.172917 0.702083
vt 0.149316 0.702452
vt 0.172917 0.666862
vt 0.135677 0.705035
vt 0.128678 0.712782
vt 0.125000 0.737500
vt 0.125000 0.681250
vt 0.125000 0.625000
vt 0.125000 0.568750
vt 0.125000 0.512500
vt 0.128678 0.537218
vt 0.135677 0.544965
vt 0.149316 0.547548
vt 0.172917 0.583138
vt 0.172917 0.547917
vt 0.172917 0.625000
vt 0.388021 0.666862
vt 0.369271 0.666862
vt 0.369271 0.625000
vt 0.388021 0.625000
vt 0.351302 0.666862
vt 0.351302 0.625000
vt 0.369271 0.583138
vt 0.388021 0.583138
vt 0.351302 0.583138
vt 0.388021 0.702083
vt 0.369271 0.702083
vt 0.351302 0.702083
vt 0.327083 0.702083
vt 0.327083 0.625000
vt 0.327083 0.583138
vt 0.351302 0.547917
vt 0.369271 0.547917
vt 0.388021 0.547917
vt 0.648698 0.666862
vt 0.630729 0.666862
vt 0.630729 0.625000
vt 0.648698 0.625000
vt 0.611979 0.666862
vt 0.611979 0.625000
vt 0.630729 0.583138
vt 0.648698 0.583138
vt 0.611979 0.583138
vt 0.672917 0.702083
vt 0.648698 0.702083
vt 0.672917 0.666862
vt 0.630729 0.702083
vt 0.611979 0.702083
vt 0.611979 0.547917
vt 0.630729 0.547917
vt 0.648698 0.547917
vt 0.672917 0.583138
vt 0.672917 0.625000
vt 0.871322 0.673572
vt 0.864323 0.668891
vt 0.864323 0.625000
vt 0.871322 0.625000
vt 0.850684 0.667116
vt 0.850684 0.625000
vt 0.864323 0.581109
vt 0.871322 0.576428
vt 0.850684 0.582884
vt 0.875000 0.737500
vt 0.871322 0.712782
vt 0.875000 0.681250
vt 0.864323 0.705035
vt 0.850684 0.702452
vt 0.827083 0.702083
vt 0.827083 0.666862
vt 0.827083 0.625000
vt 0.827083 0.583138
vt 0.827083 0.547917
vt 0.850684 0.547548
vt 0.864323 0.544965
vt 0.871322 0.537218
vt 0.875000 0.568750
vt 0.875000 0.512500
vt 0.875000 0.625000
vt 0.128667 0.732682
vt 0.135585 0.727805
vt 0.134939 0.740061
vt 0.128586 0.741629
vt 0.149051 0.725949
vt 0.147195 0.739415
vt 0.133371 0.746414
vt 0.128390 0.746610
vt 0.142318 0.746333
vt 0.128678 0.712782
vt 0.125000 0.740625
vt 0.149316 0.702452
vt 0.172917 0.702083
vt 0.172548 0.725684
vt 0.169965 0.739323
vt 0.162218 0.746322
vt 0.137500 0.750000
vt 0.134375 0.750000
vt 0.131250 0.750000
vt 0.128125 0.750000
vt 0.125000 0.746875
vt 0.125000 0.750000
vt 0.125000 0.743750
vt 0.437500 0.003379
vt 0.500000 0.003494
vt 0.500000 0.009201
vt 0.437500 0.008279
vt 0.562500 0.003379
vt 0.562500 0.008279
vt 0.500000 0.020074
vt 0.437500 0.017053
vt 0.562500 0.017053
vt 0.375000 0.000000
vt 0.437500 0.000000
vt 0.375000 0.003125
vt 0.500000 0.000000
vt 0.562500 0.000000
vt 0.625000 0.000000
vt 0.625000 0.003125
vt 0.625000 0.006250
vt 0.625000 0.009375
vt 0.562500 0.036849
vt 0.500000 0.042014
vt 0.437500 0.036849
vt 0.375000 0.009375
vt 0.375000 0.006250
vt 0.128390 0.503390
vt 0.133371 0.503586
vt 0.134939 0.509939
vt 0.128586 0.508371
vt 0.142318 0.503667
vt 0.147195 0.510585
vt 0.135585 0.522195
vt 0.128667 0.517318
vt 0.149051 0.524051
vt 0.125000 0.500000
vt 0.128125 0.500000
vt 0.125000 0.503125
vt 0.131250 0.500000
vt 0.134375 0.500000
vt 0.137500 0.500000
vt 0.162218 0.503678
vt 0.169965 0.510677
vt 0.172548 0.524316
vt 0.172917 0.547917
vt 0.149316 0.547548
vt 0.135677 0.544965
vt 0.128678 0.537218
vt 0.125000 0.509375
vt 0.125000 0.506250
vt 0.437500 0.232947
vt 0.500000 0.229926
vt 0.500000 0.240799
vt 0.437500 0.241721
vt 0.562500 0.232947
vt 0.562500 0.241721
vt 0.500000 0.246506
vt 0.437500 0.246621
vt 0.562500 0.246621
vt 0.437500 0.213151
vt 0.375000 0.240625
vt 0.500000 0.207986
vt 0.562500 0.213151
vt 0.625000 0.240625
vt 0.625000 0.243750
vt 0.625000 0.246875
vt 0.375000 0.246875
vt 0.375000 0.243750
vt 0.857682 0.503667
vt 0.866629 0.503586
vt 0.865061 0.509939
vt 0.852805 0.510585
vt 0.871610 0.503390
vt 0.871414 0.508371
vt 0.864415 0.522195
vt 0.850949 0.524051
vt 0.871333 0.517318
vt 0.862500 0.500000
vt 0.865625 0.500000
vt 0.837782 0.503678
vt 0.868750 0.500000
vt 0.871875 0.500000
vt 0.875000 0.500000
vt 0.875000 0.503125
vt 0.875000 0.506250
vt 0.875000 0.509375
vt 0.871322 0.537218
vt 0.864323 0.544965
vt 0.850684 0.547548
vt 0.827452 0.524316
vt 0.827083 0.547917
vt 0.830035 0.510677
vt 0.850949 0.725949
vt 0.864415 0.727805
vt 0.865061 0.740061
vt 0.852805 0.739415
vt 0.871333 0.732682
vt 0.871414 0.741629
vt 0.866629 0.746414
vt 0.857682 0.746333
vt 0.871610 0.746610
vt 0.827083 0.702083
vt 0.850684 0.702452
vt 0.827452 0.725684
vt 0.864323 0.705035
vt 0.871322 0.712782
vt 0.875000 0.740625
vt 0.875000 0.743750
vt 0.875000 0.746875
vt 0.875000 0.750000
vt 0.871875 0.750000
vt 0.868750 0.750000
vt 0.865625 0.750000
vt 0.837782 0.746322
vt 0.862500 0.750000
vt 0.830035 0.739323
vt 0.357978 0.503678
vt 0.369000 0.503678
vt 0.369184 0.510677
vt 0.353320 0.510677
vt 0.380488 0.503678
vt 0.385742 0.510677
vt 0.369260 0.524316
vt 0.351554 0.524316
vt 0.387736 0.524316
vt 0.362500 0.500000
vt 0.365625 0.500000
vt 0.337782 0.503678
vt 0.368750 0.500000
vt 0.371875 0.500000
vt 0.402677 0.503678
vt 0.411285 0.510677
vt 0.414171 0.524316
vt 0.414583 0.547917
vt 0.388021 0.547917
vt 0.369271 0.547917
vt 0.351302 0.547917
vt 0.327452 0.524316
vt 0.327083 0.547917
vt 0.330035 0.510677
vt 0.446288 0.503678
vt 0.500000 0.503678
vt 0.500000 0.510677
vt 0.451313 0.510677
vt 0.553712 0.503678
vt 0.548687 0.510677
vt 0.500000 0.524316
vt 0.453297 0.524316
vt 0.546703 0.524316
vt 0.597323 0.503678
vt 0.588715 0.510677
vt 0.585829 0.524316
vt 0.546419 0.547917
vt 0.500000 0.547917
vt 0.453581 0.547917
vt 0.351554 0.725684
vt 0.369260 0.725684
vt 0.369184 0.739323
vt 0.353320 0.739323
vt 0.387736 0.725684
vt 0.385742 0.739323
vt 0.369000 0.746322
vt 0.357978 0.746322
vt 0.380488 0.746322
vt 0.327083 0.702083
vt 0.351302 0.702083
vt 0.327452 0.725684
vt 0.369271 0.702083
vt 0.388021 0.702083
vt 0.414583 0.702083
vt 0.414171 0.725684
vt 0.411285 0.739323
vt 0.402677 0.746322
vt 0.371875 0.750000
vt 0.368750 0.750000
vt 0.365625 0.750000
vt 0.337782 0.746322
vt 0.362500 0.750000
vt 0.330035 0.739323
vt 0.453297 0.725684
vt 0.500000 0.725684
vt 0.500000 0.739323
vt 0.451313 0.739323
vt 0.546703 0.725684
vt 0.548687 0.739323
vt 0.500000 0.746322
vt 0.446288 0.746322
vt 0.553712 0.746322
vt 0.453581 0.702083
vt 0.500000 0.702083
vt 0.546419 0.702083
vt 0.585417 0.702083
vt 0.585829 0.725684
vt 0.588715 0.739323
vt 0.597323 0.746322
vt 0.612264 0.725684
vt 0.630740 0.725684
vt 0.630816 0.739323
vt 0.614258 0.739323
vt 0.648446 0.725684
vt 0.646680 0.739323
vt 0.631000 0.746322
vt 0.619512 0.746322
vt 0.642022 0.746322
vt 0.611979 0.702083
vt 0.630729 0.702083
vt 0.648698 0.702083
vt 0.672917 0.702083
vt 0.672548 0.725684
vt 0.669965 0.739323
vt 0.662218 0.746322
vt 0.637500 0.750000
vt 0.634375 0.750000
vt 0.631250 0.750000
vt 0.628125 0.750000
vt 0.619512 0.503678
vt 0.631000 0.503678
vt 0.630816 0.510677
vt 0.614258 0.510677
vt 0.642022 0.503678
vt 0.646680 0.510677
vt 0.630740 0.524316
vt 0.612264 0.524316
vt 0.648446 0.524316
vt 0.628125 0.500000
vt 0.631250 0.500000
vt 0.634375 0.500000
vt 0.637500 0.500000
vt 0.662218 0.503678
vt 0.669965 0.510677
vt 0.672548 0.524316
vt 0.672917 0.547917
vt 0.648698 0.547917
vt 0.630729 0.547917
vt 0.611979 0.547917
vt 0.798572 0.503678
vt 0.793891 0.510677
vt 0.750000 0.510677
vt 0.750000 0.503678
vt 0.792116 0.524316
vt 0.750000 0.524316
vt 0.706109 0.510677
vt 0.701428 0.503678
vt 0.707884 0.524316
vt 0.837782 0.503678
vt 0.806250 0.500000
vt 0.830035 0.510677
vt 0.827452 0.524316
vt 0.827083 0.547917
vt 0.791862 0.547917
vt 0.750000 0.547917
vt 0.708138 0.547917
vt 0.672548 0.524316
vt 0.693750 0.500000
vt 0.750000 0.500000
vt 0.792116 0.725684
vt 0.793891 0.739323
vt 0.750000 0.739323
vt 0.750000 0.725684
vt 0.798572 0.746322
vt 0.750000 0.746322
vt 0.706109 0.739323
vt 0.707884 0.725684
vt 0.701428 0.746322
vt 0.827083 0.702083
vt 0.791862 0.702083
vt 0.837782 0.746322
vt 0.806250 0.750000
vt 0.750000 0.750000
vt 0.693750 0.750000
vt 0.662218 0.746322
vt 0.672548 0.725684
vt 0.708138 0.702083
vt 0.750000 0.702083
vt 0.298572 0.503678
vt 0.293891 0.510677
vt 0.250000 0.510677
vt 0.250000 0.503678
vt 0.292116 0.524316
vt 0.250000 0.524316
vt 0.206109 0.510677
vt 0.201428 0.503678
vt 0.207884 0.524316
vt 0.337782 0.503678
vt 0.306250 0.500000
vt 0.327452 0.524316
vt 0.291862 0.547917
vt 0.208138 0.547917
vt 0.172548 0.524316
vt 0.169965 0.510677
vt 0.162218 0.503678
vt 0.193750 0.500000
vt 0.250000 0.500000
vt 0.292116 0.725684
vt 0.293891 0.739323
vt 0.250000 0.739323
vt 0.250000 0.725684
vt 0.298572 0.746322
vt 0.250000 0.746322
vt 0.206109 0.739323
vt 0.207884 0.725684
vt 0.201428 0.746322
vt 0.327083 0.702083
vt 0.327452 0.725684
vt 0.291862 0.702083
vt 0.337782 0.746322
vt 0.306250 0.750000
vt 0.250000 0.750000
vt 0.193750 0.750000
vt 0.162218 0.746322
vt 0.169965 0.739323
vt 0.208138 0.702083
vt 0.250000 0.702083
s 1
f 213/1/181 214/2/182 217/3/182 216/4/181
f 214/2/182 215/5/183 218/6/183 217/3/182
f 216/4/181 217/3/182 220/7/182 219/8/181
f 217/3/182 218/6/183 221/9/183 220/7/182
f 15/10/15 51/11/47 213/1/181 45/12/45
f 51/11/47 52/13/48 214/2/182 213/1/181
f 52/13/48 53/14/49 215/5/183 214/2/182
f 53/14/49 14/15/14 50/16/46 215/5/183
f 215/5/183 50/16/46 49/17/46 218/6/183
f 218/6/183 49/17/46 48/18/46 221/9/183
f 221/9/183 48/18/46 13/19/13 54/20/50
f 220/7/182 221/9/183 54/20/50 55/21/51
f 219/8/181 220/7/182 55/21/51 56/22/52
f 47/23/45 219/8/181 56/22/52 16/24/16
f 46/25/45 216/4/181 219/8/181 47/23/45
f 45/12/45 213/1/181 216/4/181 46/25/45
f 222/26/184 223/27/185 226/28/185 225/29/184
f 223/27/185 224/30/186 227/31/186 226/28/185
f 225/29/184 226/28/185 229/32/185 228/33/184
f 226/28/185 227/31/186 230/34/186 229/32/185
f 12/35/12 60/36/54 222/26/184 59/37/53
f 60/36/54 61/38/55 223/27/185 222/26/184
f 61/38/55 62/39/56 224/30/186 223/27/185
f 62/39/56 9/40/9 63/41/57 224/30/186
f 224/30/186 63/41/57 64/42/57 227/31/186
f 227/31/186 64/42/57 65/43/57 230/34/186
f 230/34/186 65/43/57 10/44/10 66/45/58
f 229/32/185 230/34/186 66/45/58 67/46/59
f 228/33/184 229/32/185 67/46/59 68/47/60
f 57/48/53 228/33/184 68/47/60 11/49/11
f 58/50/53 225/29/184 228/33/184 57/48/53
f 59/37/53 222/26/184 225/29/184 58/50/53
f 231/51/187 232/52/188 235/53/191 234/54/190
f 232/52/188 233/55/189 236/56/192 235/53/191
f 234/54/190 235/53/191 238/57/194 237/58/193
f 235/53/191 236/56/192 239/59/195 238/57/194
f 3/60/3 38/61/38 231/51/187 69/62/61
f 38/61/38 37/63/37 232/52/188 231/51/187
f 37/63/37 36/64/36 233/55/189 232/52/188
f 36/64/36 4/65/4 72/66/64 233/55/189
f 233/55/189 72/66/64 73/67/65 236/56/192
f 236/56/192 73/67/65 74/68/66 239/59/195
f 239/59/195 74/68/66 11/49/11 68/69/60
f 238/57/194 239/59/195 68/69/60 67/70/59
f 237/58/193 238/57/194 67/70/59 66/71/58
f 71/72/63 237/58/193 66/71/58 10/44/10
f 70/73/62 234/54/190 237/58/193 71/72/63
f 69/62/61 231/51/187 234/54/190 70/73/62
f 240/74/196 241/75/197 244/76/200 243/77/199
f 241/75/197 242/78/198 245/79/201 244/76/200
f 243/77/199 244/76/200 247/80/203 246/81/202
f 244/76/200 245/79/201 248/82/204 247/80/203
f 9/40/9 62/83/56 240/74/196 75/84/67
f 62/83/56 61/85/55 241/75/197 240/74/196
f 61/85/55 60/86/54 242/78/198 241/75/197
f 60/86/54 12/35/12 78/87/70 242/78/198
f 242/78/198 78/87/70 79/88/71 245/79/201
f 245/79/201 79/88/71 80/89/72 248/82/204
f 248/82/204 80/89/72 8/90/8 39/91/39
f 247/80/203 248/82/204 39/91/39 40/92/40
f 246/81/202 247/80/203 40/92/40 41/93/41
f 77/94/69 246/81/202 41/93/41 7/95/7
f 76/96/68 243/77/199 246/81/202 77/94/69
f 75/84/67 240/74/196 243/77/199 76/96/68
f 249/97/205 250/98/206 253/99/209 252/100/208
f 250/98/206 251/101/207 254/102/210 253/99/209
f 252/100/208 253/99/209 256/103/212 255/104/211
f 253/99/209 254/102/210 257/105/213 256/103/212
f 5/106/5 44/107/44 249/97/205 83/108/75
f 44/107/44 43/109/43 250/98/206 249/97/205
f 43/109/43 42/110/42 251/101/207 250/98/206
f 42/110/42 6/111/6 84/112/76 251/101/207
f 251/101/207 84/112/76 85/113/77 254/102/210
f 254/102/210 85/113/77 86/114/78 257/105/213
f 257/105/213 86/114/78 16/24/16 56/115/52
f 256/103/212 257/105/213 56/115/52 55/116/51
f 255/104/211 256/103/212 55/116/51 54/117/50
f 81/118/73 255/104/211 54/117/50 13/19/13
f 82/119/74 252/100/208 255/104/211 81/118/73
f 83/108/75 249/97/205 252/100/208 82/119/74
f 258/120/214 259/121/215 262/122/218 261/123/217
f 259/121/215 260/124/216 263/125/219 262/122/218
f 261/123/217 262/122/218 265/126/221 264/127/220
f 262/122/218 263/125/219 266/128/222 265/126/221
f 14/15/14 53/129/49 258/120/214 87/130/79
f 53/129/49 52/131/48 259/121/215 258/120/214
f 52/131/48 51/132/47 260/124/216 259/121/215
f 51/132/47 15/10/15 90/133/82 260/124/216
f 260/124/216 90/133/82 91/134/83 263/125/219
f 263/125/219 91/134/83 92/135/84 266/128/222
f 266/128/222 92/135/84 2/136/2 35/137/35
f 265/126/221 266/128/222 35/137/35 34/138/34
f 264/127/220 265/126/221 34/138/34 33/139/33
f 89/140/81 264/127/220 33/139/33 1/141/1
f 88/142/80 261/123/217 264/127/220 89/140/81
f 87/130/79 258/120/214 261/123/217 88/142/80
f 267/143/223 268/144/224 271/145/224 270/146/223
f 268/144/224 269/147/225 272/148/225 271/145/224
f 270/146/223 271/145/224 274/149/224 273/150/223
f 271/145/224 272/148/225 275/151/225 274/149/224
f 24/152/24 96/153/86 267/143/223 95/154/85
f 96/153/86 97/155/87 268/144/224 267/143/223
f 97/155/87 98/156/88 269/147/225 268/144/224
f 98/156/88 21/157/21 99/158/89 269/147/225
f 269/147/225 99/158/89 100/159/89 272/148/225
f 272/148/225 100/159/89 101/160/89 275/151/225
f 275/151/225 101/160/89 22/161/22 102/162/90
f 274/149/224 275/151/225 102/162/90 103/163/91
f 273/150/223 274/149/224 103/163/91 104/164/92
f 93/165/85 273/150/223 104/164/92 23/166/23
f 94/167/85 270/146/223 273/150/223 93/165/85
f 95/154/85 267/143/223 270/146/223 94/167/85
f 276/168/226 277/169/227 280/170/227 279/171/226
f 277/169/227 278/172/228 281/173/228 280/170/227
f 279/171/226 280/170/227 283/174/227 282/175/226
f 280/170/227 281/173/228 284/176/228 283/174/227
f 20/177/20 108/178/94 276/168/226 107/179/93
f 108/178/94 109/180/95 277/169/227 276/168/226
f 109/180/95 110/181/96 278/172/228 277/169/227
f 110/181/96 17/182/17 111/183/97 278/172/228
f 278/172/228 111/183/97 112/184/97 281/173/228
f 281/173/228 112/184/97 113/185/97 284/176/228
f 284/176/228 113/185/97 18/186/18 114/187/98
f 283/174/227 284/176/228 114/187/98 115/188/99
f 282/175/226 283/174/227 115/188/99 116/189/100
f 105/190/93 282/175/226 116/189/100 19/191/19
f 106/192/93 279/171/226 282/175/226 105/190/93
f 107/179/93 276/168/226 279/171/226 106/192/93
f 285/193/229 286/194/229 289/195/229 288/196/229
f 286/194/229 287/197/229 290/198/229 289/195/229
f 288/196/229 289/195/229 292/199/229 291/200/229
f 289/195/229 290/198/229 293/201/229 292/199/229
f 26/202/26 120/203/102 285/193/229 119/204/101
f 120/203/102 121/205/102 286/194/229 285/193/229
f 121/205/102 122/206/102 287/197/229 286/194/229
f 122/206/102 27/207/27 123/208/103 287/197/229
f 287/197/229 123/208/103 124/209/103 290/198/229
f 290/198/229 124/209/103 125/210/103 293/201/229
f 293/201/229 125/210/103 28/211/28 126/212/104
f 292/199/229 293/201/229 126/212/104 127/213/104
f 291/200/229 292/199/229 127/213/104 128/214/104
f 117/215/101 291/200/229 128/214/104 25/216/25
f 118/217/101 288/196/229 291/200/229 117/215/101
f 119/204/101 285/193/229 288/196/229 118/217/101
f 294/218/230 295/219/230 298/220/230 297/221/230
f 295/219/230 296/222/230 299/223/230 298/220/230
f 297/221/230 298/220/230 301/224/230 300/225/230
f 298/220/230 299/223/230 302/226/230 301/224/230
f 30/227/30 132/228/106 294/218/230 131/229/105
f 132/228/106 133/230/106 295/219/230 294/218/230
f 133/230/106 134/231/106 296/222/230 295/219/230
f 134/231/106 31/232/31 135/233/107 296/222/230
f 296/222/230 135/233/107 136/234/107 299/223/230
f 299/223/230 136/234/107 137/235/107 302/226/230
f 302/226/230 137/235/107 32/236/32 138/237/108
f 301/224/230 302/226/230 138/237/108 139/238/108
f 300/225/230 301/224/230 139/238/108 140/239/108
f 129/240/105 300/225/230 140/239/108 29/241/29
f 130/242/105 297/221/230 300/225/230 129/240/105
f 131/229/105 294/218/230 297/221/230 130/242/105
f 303/243/231 304/244/232 307/245/232 306/246/231
f 304/244/232 305/247/233 308/248/233 307/245/232
f 306/246/231 307/245/232 310/249/232 309/250/231
f 307/245/232 308/248/233 311/251/233 310/249/232
f 29/252/29 141/253/109 303/243/231 129/254/105
f 141/253/109 142/255/110 304/244/232 303/243/231
f 142/255/110 143/256/111 305/247/233 304/244/232
f 143/256/111 18/257/18 113/258/97 305/247/233
f 305/247/233 113/258/97 112/259/97 308/248/233
f 308/248/233 112/259/97 111/260/97 311/251/233
f 311/251/233 111/260/97 17/261/17 144/262/112
f 310/249/232 311/251/233 144/262/112 145/263/113
f 309/250/231 310/249/232 145/263/113 146/264/114
f 131/265/105 309/250/231 146/264/114 30/266/30
f 130/267/105 306/246/231 309/250/231 131/265/105
f 129/254/105 303/243/231 306/246/231 130/267/105
f 312/268/234 313/269/235 316/270/235 315/271/234
f 313/269/235 314/272/236 317/273/236 316/270/235
f 315/271/234 316/270/235 319/274/235 318/275/234
f 316/270/235 317/273/236 320/276/236 319/274/235
f 21/157/21 147/277/115 312/268/234 99/158/89
f 147/277/115 148/278/116 313/269/235 312/268/234
f 148/278/116 149/279/117 314/272/236 313/269/235
f 149/279/117 32/280/32 137/235/107 314/272/236
f 314/272/236 137/235/107 136/281/107 317/273/236
f 317/273/236 136/281/107 135/282/107 320/276/236
f 320/276/236 135/282/107 31/232/31 150/283/118
f 319/274/235 320/276/236 150/283/118 151/284/119
f 318/275/234 319/274/235 151/284/119 152/285/120
f 101/160/89 318/275/234 152/285/120 22/161/22
f 100/159/89 315/271/234 318/275/234 101/160/89
f 99/158/89 312/268/234 315/271/234 100/159/89
f 321/286/237 322/287/238 325/288/238 324/289/237
f 322/287/238 323/290/239 326/291/239 325/288/238
f 324/289/237 325/288/238 328/292/238 327/293/237
f 325/288/238 326/291/239 329/294/239 328/292/238
f 25/295/25 153/296/121 321/286/237 117/297/101
f 153/296/121 154/298/122 322/287/238 321/286/237
f 154/298/122 155/299/123 323/290/239 322/287/238
f 155/299/123 24/152/24 95/154/85 323/290/239
f 323/290/239 95/154/85 94/167/85 326/291/239
f 326/291/239 94/167/85 93/165/85 329/294/239
f 329/294/239 93/165/85 23/166/23 156/300/124
f 328/292/238 329/294/239 156/300/124 157/301/125
f 327/293/237 328/292/238 157/301/125 158/302/126
f 119/303/101 327/293/237 158/302/126 26/202/26
f 118/304/101 324/289/237 327/293/237 119/303/101
f 117/297/101 321/286/237 324/289/237 118/304/101
f 330/305/240 331/306/241 334/307/241 333/308/240
f 331/306/241 332/309/242 335/310/242 334/307/241
f 333/308/240 334/307/241 337/311/241 336/312/240
f 334/307/241 335/310/242 338/313/242 337/311/241
f 19/314/19 159/315/127 330/305/240 105/316/93
f 159/315/127 160/317/128 331/306/241 330/305/240
f 160/317/128 161/318/129 332/309/242 331/306/241
f 161/318/129 28/319/28 125/320/103 332/309/242
f 332/309/242 125/320/103 124/321/103 335/310/242
f 335/310/242 124/321/103 123/322/103 338/313/242
f 338/313/242 123/322/103 27/323/27 162/324/130
f 337/311/241 338/313/242 162/324/130 163/325/131
f 336/312/240 337/311/241 163/325/131 164/326/132
f 107/327/93 336/312/240 164/326/132 20/328/20
f 106/329/93 333/308/240 336/312/240 107/327/93
f 105/316/93 330/305/240 333/308/240 106/329/93
f 339/330/243 340/331/244 343/332/247 342/333/246
f 340/331/244 341/334/245 344/335/248 343/332/247
f 342/333/246 343/332/247 346/336/250 345/337/249
f 343/332/247 344/335/248 347/338/251 346/336/250
f 18/257/18 143/339/111 339/330/243 167/340/135
f 143/339/111 142/255/110 340/331/244 339/330/243
f 142/255/110 141/341/109 341/334/245 340/331/244
f 141/341/109 29/342/29 168/343/136 341/334/245
f 341/334/245 168/343/136 169/344/137 344/335/248
f 344/335/248 169/344/137 170/345/138 347/338/251
f 347/338/251 170/345/138 14/346/14 87/347/79
f 346/336/250 347/338/251 87/347/79 88/348/80
f 345/337/249 346/336/250 88/348/80 89/349/81
f 165/350/133 345/337/249 89/349/81 1/351/1
f 166/352/134 342/333/246 345/337/249 165/350/133
f 167/340/135 339/330/243 342/333/246 166/352/134
f 348/353/252 349/354/253 352/355/256 351/356/255
f 349/354/253 350/357/254 353/358/257 352/355/256
f 351/356/255 352/355/256 355/359/259 354/360/258
f 352/355/256 353/358/257 356/361/260 355/359/259
f 1/362/1 33/363/33 348/353/252 165/364/133
f 33/363/33 34/365/34 349/354/253 348/353/252
f 34/365/34 35/366/35 350/357/254 349/354/253
f 35/366/35 2/367/2 171/368/139 350/357/254
f 350/357/254 171/368/139 172/369/140 353/358/257
f 353/358/257 172/369/140 173/370/141 356/361/260
f 356/361/260 173/370/141 19/191/19 116/371/100
f 355/359/259 356/361/260 116/371/100 115/372/99
f 354/360/258 355/359/259 115/372/99 114/373/98
f 167/374/135 354/360/258 114/373/98 18/186/18
f 166/375/134 351/356/255 354/360/258 167/374/135
f 165/364/133 348/353/252 351/356/255 166/375/134
f 357/376/261 358/377/262 361/378/265 360/379/264
f 358/377/262 359/380/263 362/381/266 361/378/265
f 360/379/264 361/378/265 364/382/268 363/383/267
f 361/378/265 362/381/266 365/384/269 364/382/268
f 3/385/3 69/386/61 357/376/261 176/387/144
f 69/386/61 70/388/62 358/377/262 357/376/261
f 70/388/62 71/389/63 359/380/263 358/377/262
f 71/389/63 10/390/10 177/391/145 359/380/263
f 359/380/263 177/391/145 178/392/146 362/381/266
f 362/381/266 178/392/146 179/393/147 365/384/269
f 365/384/269 179/393/147 30/394/30 146/395/114
f 364/382/268 365/384/269 146/395/114 145/396/113
f 363/383/267 364/382/268 145/396/113 144/397/112
f 174/398/142 363/383/267 144/397/112 17/261/17
f 175/399/143 360/379/264 363/383/267 174/398/142
f 176/387/144 357/376/261 360/379/264 175/399/143
f 366/400/270 367/401/271 370/402/274 369/403/273
f 367/401/271 368/404/272 371/405/275 370/402/274
f 369/403/273 370/402/274 373/406/277 372/407/276
f 370/402/274 371/405/275 374/408/278 373/406/277
f 17/182/17 110/409/96 366/400/270 174/410/142
f 110/409/96 109/411/95 367/401/271 366/400/270
f 109/411/95 108/412/94 368/404/272 367/401/271
f 108/412/94 20/177/20 180/413/148 368/404/272
f 368/404/272 180/413/148 181/414/149 371/405/275
f 371/405/275 181/414/149 182/415/150 374/408/278
f 374/408/278 182/415/150 4/65/4 36/64/36
f 373/406/277 374/408/278 36/64/36 37/63/37
f 372/407/276 373/406/277 37/63/37 38/61/38
f 176/416/144 372/407/276 38/61/38 3/60/3
f 175/417/143 369/403/273 372/407/276 176/416/144
f 174/410/142 366/400/270 369/403/273 175/417/143
f 375/418/279 376/419/280 379/420/283 378/421/282
f 376/419/280 377/422/281 380/423/284 379/420/283
f 378/421/282 379/420/283 382/424/286 381/425/285
f 379/420/283 380/423/284 383/426/287 382/424/286
f 11/427/11 74/428/66 375/418/279 185/429/153
f 74/428/66 73/430/65 376/419/280 375/418/279
f 73/430/65 72/431/64 377/422/281 376/419/280
f 72/431/64 4/432/4 182/433/150 377/422/281
f 377/422/281 182/433/150 181/434/149 380/423/284
f 380/423/284 181/434/149 180/435/148 383/426/287
f 383/426/287 180/435/148 20/328/20 164/436/132
f 382/424/286 383/426/287 164/436/132 163/437/131
f 381/425/285 382/424/286 163/437/131 162/438/130
f 183/439/151 381/425/285 162/438/130 27/440/27
f 184/441/152 378/421/282 381/425/285 183/439/151
f 185/429/153 375/418/279 378/421/282 184/441/152
f 384/442/288 385/443/289 388/444/292 387/445/291
f 385/443/289 386/446/290 389/447/293 388/444/292
f 387/445/291 388/444/292 391/448/295 390/449/294
f 388/444/292 389/447/293 392/450/296 391/448/295
f 28/451/28 161/452/129 384/442/288 188/453/156
f 161/452/129 160/454/128 385/443/289 384/442/288
f 160/454/128 159/455/127 386/446/290 385/443/289
f 159/455/127 19/314/19 173/456/141 386/446/290
f 386/446/290 173/456/141 172/457/140 389/447/293
f 389/447/293 172/457/140 171/458/139 392/450/296
f 392/450/296 171/458/139 2/459/2 92/460/84
f 391/448/295 392/450/296 92/460/84 91/461/83
f 390/449/294 391/448/295 91/461/83 90/462/82
f 186/463/154 390/449/294 90/462/82 15/464/15
f 187/465/155 387/445/291 390/449/294 186/463/154
f 188/453/156 384/442/288 387/445/291 187/465/155
f 393/466/297 394/467/298 397/468/301 396/469/300
f 394/467/298 395/470/299 398/471/302 397/468/301
f 396/469/300 397/468/301 400/472/304 399/473/303
f 397/468/301 398/471/302 401/474/305 400/472/304
f 9/475/9 75/476/67 393/466/297 191/477/159
f 75/476/67 76/478/68 394/467/298 393/466/297
f 76/478/68 77/479/69 395/470/299 394/467/298
f 77/479/69 7/95/7 192/480/160 395/470/299
f 395/470/299 192/480/160 193/481/161 398/471/302
f 398/471/302 193/481/161 194/482/162 401/474/305
f 401/474/305 194/482/162 22/483/22 152/484/120
f 400/472/304 401/474/305 152/484/120 151/485/119
f 399/473/303 400/472/304 151/485/119 150/486/118
f 189/487/157 399/473/303 150/486/118 31/488/31
f 190/489/158 396/469/300 399/473/303 189/487/157
f 191/477/159 393/466/297 396/469/300 190/489/158
f 402/490/306 403/491/307 406/492/310 405/493/309
f 403/491/307 404/494/308 407/495/311 406/492/310
f 405/493/309 406/492/310 409/496/313 408/497/312
f 406/492/310 407/495/311 410/498/314 409/496/313
f 7/95/7 41/93/41 402/490/306 192/480/160
f 41/93/41 40/92/40 403/491/307 402/490/306
f 40/92/40 39/91/39 404/494/308 403/491/307
f 39/91/39 8/90/8 195/499/163 404/494/308
f 404/494/308 195/499/163 196/500/164 407/495/311
f 407/495/311 196/500/164 197/501/165 410/498/314
f 410/498/314 197/501/165 23/166/23 104/502/92
f 409/496/313 410/498/314 104/502/92 103/503/91
f 408/497/312 409/496/313 103/503/91 102/504/90
f 194/482/162 408/497/312 102/504/90 22/483/22
f 193/481/161 405/493/309 408/497/312 194/482/162
f 192/480/160 402/490/306 405/493/309 193/481/161
f 411/505/315 412/506/316 415/507/319 414/508/318
f 412/506/316 413/509/317 416/510/320 415/507/319
f 414/508/318 415/507/319 418/511/322 417/512/321
f 415/507/319 416/510/320 419/513/323 418/511/322
f 32/514/32 149/515/117 411/505/315 200/516/168
f 149/515/117 148/517/116 412/506/316 411/505/315
f 148/517/116 147/518/115 413/509/317 412/506/316
f 147/518/115 21/519/21 201/520/169 413/509/317
f 413/509/317 201/520/169 202/521/170 416/510/320
f 416/510/320 202/521/170 203/522/171 419/513/323
f 419/513/323 203/522/171 5/106/5 83/523/75
f 418/511/322 419/513/323 83/523/75 82/524/74
f 417/512/321 418/511/322 82/524/74 81/525/73
f 198/526/166 417/512/321 81/525/73 13/527/13
f 199/528/167 414/508/318 417/512/321 198/526/166
f 200/516/168 411/505/315 414/508/318 199/528/167
f 420/529/324 421/530/325 424/531/328 423/532/327
f 421/530/325 422/533/326 425/534/329 424/531/328
f 423/532/327 424/531/328 427/535/331 426/536/330
f 424/531/328 425/534/329 428/537/332 427/535/331
f 21/519/21 98/538/88 420/529/324 201/520/169
f 98/538/88 97/539/87 421/530/325 420/529/324
f 97/539/87 96/540/86 422/533/326 421/530/325
f 96/540/86 24/541/24 204/542/172 422/533/326
f 422/533/326 204/542/172 205/543/173 425/534/329
f 425/534/329 205/543/173 206/544/174 428/537/332
f 428/537/332 206/544/174 6/111/6 42/110/42
f 427/535/331 428/537/332 42/110/42 43/109/43
f 426/536/330 427/535/331 43/109/43 44/107/44
f 203/522/171 426/536/330 44/107/44 5/106/5
f 202/521/170 423/532/327 426/536/330 203/522/171
f 201/520/169 420/529/324 423/532/327 202/521/170
f 429/545/333 430/546/334 433/547/337 432/548/336
f 430/546/334 431/549/335 434/550/338 433/547/337
f 432/548/336 433/547/337 436/551/340 435/552/339
f 433/547/337 434/550/338 437/553/341 436/551/340
f 24/541/24 155/554/123 429/545/333 204/542/172
f 155/554/123 154/555/122 430/546/334 429/545/333
f 154/555/122 153/556/121 431/549/335 430/546/334
f 153/556/121 25/557/25 207/558/175 431/549/335
f 431/549/335 207/558/175 208/559/176 434/550/338
f 434/550/338 208/559/176 209/560/177 437/553/341
f 437/553/341 209/560/177 16/561/16 86/562/78
f 436/551/340 437/553/341 86/562/78 85/563/77
f 435/552/339 436/551/340 85/563/77 84/564/76
f 206/544/174 435/552/339 84/564/76 6/111/6
f 205/543/173 432/548/336 435/552/339 206/544/174
f 204/542/172 429/545/333 432/548/336 205/543/173
f 438/565/342 439/566/343 442/567/346 441/568/345
f 439/566/343 440/569/344 443/570/347 442/567/346
f 441/568/345 442/567/346 445/571/349 444/572/348
f 442/567/346 443/570/347 446/573/350 445/571/349
f 8/90/8 80/574/72 438/565/342 195/499/163
f 80/574/72 79/575/71 439/566/343 438/565/342
f 79/575/71 78/576/70 440/569/344 439/566/343
f 78/576/70 12/577/12 210/578/178 440/569/344
f 440/569/344 210/578/178 211/579/179 443/570/347
f 443/570/347 211/579/179 212/580/180 446/573/350
f 446/573/350 212/580/180 26/581/26 158/582/126
f 445/571/349 446/573/350 158/582/126 157/583/125
f 444/572/348 445/571/349 157/583/125 156/584/124
f 197/501/165 444/572/348 156/584/124 23/166/23
f 196/500/164 441/568/345 444/572/348 197/501/165
f 195/499/163 438/565/342 441/568/345 196/500/164
f 447/585/351 448/586/352 451/587/352 450/588/351
f 448/586/352 449/589/353 452/590/353 451/587/352
f 450/588/351 451/587/352 454/591/352 453/592/351
f 451/587/352 452/590/353 455/593/353 454/591/352
f 11/427/11 185/594/153 447/585/351 57/595/53
f 185/594/153 184/596/152 448/586/352 447/585/351
f 184/596/152 183/597/151 449/589/353 448/586/352
f 183/597/151 27/598/27 122/599/102 449/589/353
f 449/589/353 122/599/102 121/600/102 452/590/353
f 452/590/353 121/600/102 120/601/102 455/593/353
f 455/593/353 120/601/102 26/581/26 212/602/180
f 454/591/352 455/593/353 212/602/180 211/579/179
f 453/592/351 454/591/352 211/579/179 210/578/178
f 59/603/53 453/592/351 210/578/178 12/577/12
f 58/604/53 450/588/351 453/592/351 59/603/53
f 57/595/53 447/585/351 450/588/351 58/604/53
f 456/605/354 457/606/355 460/607/355 459/608/354
f 457/606/355 458/609/356 461/610/356 460/607/355
f 459/608/354 460/607/355 463/611/355 462/612/354
f 460/607/355 461/610/356 464/613/356 463/611/355
f 28/614/28 188/453/156 456/605/354 126/615/104
f 188/453/156 187/465/155 457/606/355 456/605/354
f 187/465/155 186/616/154 458/609/356 457/606/355
f 186/616/154 15/464/15 45/617/45 458/609/356
f 458/609/356 45/617/45 46/618/45 461/610/356
f 461/610/356 46/618/45 47/619/45 464/613/356
f 464/613/356 47/619/45 16/561/16 209/620/177
f 463/611/355 464/613/356 209/620/177 208/559/176
f 462/612/354 463/611/355 208/559/176 207/621/175
f 128/622/104 462/612/354 207/621/175 25/216/25
f 127/623/104 459/608/354 462/612/354 128/622/104
f 126/615/104 456/605/354 459/608/354 127/623/104
f 465/624/357 466/625/358 469/626/358 468/627/357
f 466/625/358 467/628/359 470/629/359 469/626/358
f 468/627/357 469/626/358 472/630/358 471/631/357
f 469/626/358 470/629/359 473/632/359 472/630/358
f 9/475/9 191/633/159 465/624/357 63/634/57
f 191/633/159 190/489/158 466/625/358 465/624/357
f 190/489/158 189/635/157 467/628/359 466/625/358
f 189/635/157 31/488/31 134/636/106 467/628/359
f 467/628/359 134/636/106 133/230/106 470/629/359
f 470/629/359 133/230/106 132/637/106 473/632/359
f 473/632/359 132/637/106 30/394/30 179/638/147
f 472/630/358 473/632/359 179/638/147 178/639/146
f 471/631/357 472/630/358 178/639/146 177/640/145
f 65/641/57 471/631/357 177/640/145 10/390/10
f 64/642/57 468/627/357 471/631/357 65/641/57
f 63/634/57 465/624/357 468/627/357 64/642/57
f 474/643/360 475/644/361 478/645/361 477/646/360
f 475/644/361 476/647/362 479/648/362 478/645/361
f 477/646/360 478/645/361 481/649/361 480/650/360
f 478/645/361 479/648/362 482/651/362 481/649/361
f 32/652/32 200/653/168 474/643/360 138/654/108
f 200/653/168 199/528/167 475/644/361 474/643/360
f 199/528/167 198/655/166 476/647/362 475/644/361
f 198/655/166 13/527/13 48/656/46 476/647/362
f 476/647/362 48/656/46 49/657/46 479/648/362
f 479/648/362 49/657/46 50/658/46 482/651/362
f 482/651/362 50/658/46 14/346/14 170/659/138
f 481/649/361 482/651/362 170/659/138 169/660/137
f 480/650/360 481/649/361 169/660/137 168/343/136
f 140/661/108 480/650/360 168/343/136 29/252/29
f 139/662/108 477/646/360 480/650/360 140/661/108
f 138/654/108 474/643/360 477/646/360 139/662/108
